<svg xmlns="http://www.w3.org/2000/svg" viewBox="0 0 48.67 52.56"><defs><style>.cls-1{fill:#3fa0f2;}.cls-2{fill:#ffefae;}.cls-3{fill:#fce68d;}.cls-4{fill:#4a4a4a;}.cls-5{fill:#e5a998;}.cls-6{fill:#fc6f6f;}.cls-7{fill:#fff;}</style></defs><title>logo</title><g id="OBJECTS"><circle class="cls-1" cx="24.23" cy="28.48" r="23.74"/><path d="M31.11,18.78c.52-5.81,4.22-12.91,10.53-14,.87-.15.73-1.52-.15-1.37C34.57,4.6,30.33,12.09,29.76,18.56c-.08.88,1.28,1.1,1.35.22Z"/><path d="M18.75,17c-1.2-5-4.7-11.4-10.09-12.73-.86-.21-.6-1.56.26-1.35,5.89,1.45,9.8,8.15,11.14,13.64.2.86-1.1,1.31-1.31.44Z"/><path class="cls-2" d="M5.62,4.15A2.52,2.52,0,1,0,6.4.67,2.51,2.51,0,0,0,5.62,4.15Z"/><path class="cls-2" d="M45.71,4.4a2.52,2.52,0,1,1-2.17-2.83A2.51,2.51,0,0,1,45.71,4.4Z"/><path class="cls-2" d="M41.38,35.13c-2.35,10.06-10.94,10-21,7.62S2.58,36.67,4.93,26.61a18.72,18.72,0,1,1,36.45,8.52Z"/><path class="cls-3" d="M41.38,35.13a18.72,18.72,0,0,0-5.76-18.24,18.73,18.73,0,0,1,4.23,16.69c-2.36,10.06-10.94,10-21,7.62-5-1.16-9.36-2.65-12.26-5.08,2.72,3.37,7.85,5.24,13.8,6.63C30.44,45.11,39,45.19,41.38,35.13Z"/><circle class="cls-4" cx="13.26" cy="26.72" r="2.44"/><path class="cls-4" d="M35.61,31.94A2.44,2.44,0,1,1,33.79,29,2.44,2.44,0,0,1,35.61,31.94Z"/><path class="cls-5" d="M10.92,30.53a2,2,0,1,1-1.23-2.48A2,2,0,0,1,10.92,30.53Z"/><circle class="cls-5" cx="35.29" cy="36.7" r="1.95"/><path class="cls-4" d="M33.89,24.1a1.34,1.34,0,0,1,2.6.2.49.49,0,0,0,1-.16A2.31,2.31,0,0,0,33,23.76a.49.49,0,0,0,.91.34Z"/><path class="cls-4" d="M14.5,18.72a1.25,1.25,0,0,1,2.29.28c.17.59,1.14.43,1-.17a2.23,2.23,0,0,0-4-.68c-.35.52.44,1.1.79.57Z"/><path class="cls-4" d="M15.48,31.29a2.89,2.89,0,0,0-.22.43,7.59,7.59,0,0,0-.5,1.38,9.43,9.43,0,0,0-.23,3,7.61,7.61,0,0,0,2,4.59,7.58,7.58,0,0,0,9,1.14,8,8,0,0,0,3.41-4.25,9.07,9.07,0,0,0,.52-2.82c0-.34.3-1.33-.36-1.09a7,7,0,0,1-1.58.38,16.17,16.17,0,0,1-1.83.17A17.16,17.16,0,0,1,22,34a13.26,13.26,0,0,1-4.43-1.49c-.39-.24-.8-.51-1.17-.79-.19-.14-.35-.3-.55-.44A.25.25,0,0,0,15.48,31.29Z"/><path class="cls-6" d="M26.63,38.88a6.58,6.58,0,0,0-3.37-.57,9.36,9.36,0,0,0-6.32,2.76,7.63,7.63,0,0,0,8.59.75,7.46,7.46,0,0,0,2.26-2.07A4.11,4.11,0,0,0,26.63,38.88Z"/><path class="cls-7" d="M13.88,17a4.6,4.6,0,0,1,2.53-1.38.49.49,0,0,0-.17-1,5.72,5.72,0,0,0-3.15,1.76c-.43.46.37,1,.79.58Z"/><path class="cls-7" d="M17.67,15.23a.49.49,0,0,0,.34-.92.49.49,0,0,0-.34.92Z"/></g></svg>