<?xml version="1.0" encoding="utf-8"?>
<!-- Generator: Adobe Illustrator 24.0.0, SVG Export Plug-In . SVG Version: 6.00 Build 0)  -->
<svg version="1.1" id="Layer_1" xmlns="http://www.w3.org/2000/svg" xmlns:xlink="http://www.w3.org/1999/xlink" x="0px" y="0px"
	 viewBox="0 0 141.3 141.3" style="enable-background:new 0 0 141.3 141.3;" xml:space="preserve">
<style type="text/css">
	.st0{fill:#06054D;}
	.st1{fill:#FEFCFF;}
	.st2{fill:#0073FF;}
</style>
<title>bee_logo</title>
<path class="st0" d="M70.7,0L70.7,0c39,0,70.7,31.6,70.7,70.7v0c0,39-31.6,70.7-70.7,70.7l0,0c-39,0-70.7-31.6-70.7-70.7v0
	C0,31.6,31.6,0,70.7,0z"/>
<path class="st1" d="M104.4,99.9c-9.3,11.6-31.8,10.1-30.1,2.5s32-12.2,21.9-20.9c-7.3-6.3-20.8-0.3-25-1c-2.1-0.3-1.9-2.2,2.2-7.7
	c20.1-27.3-6-50.3-14.1-29.7c-4.1,10.3-1.6,26.5,2.2,40.8c2.5,9.2,5.5,18.3,9,27.2c1.1,2.7,1.4,5.7,0.9,8.6c-0.8,4.4-3.4,8.4-12-0.4
	c-9-9.2-15-20.9-17-33.7C36.6,49.8,62.3,14.4,84.3,28c17.4,10.7-6,38.8,3.3,41.4c0.2,0.1,0.4,0.1,0.7,0.1
	C108.9,72.3,115.3,86.2,104.4,99.9z"/>
<circle class="st2" cx="33.9" cy="48.6" r="7.8"/>
</svg>
